<?xml version="1.0" encoding="UTF-8"?><svg id="Layer_1" xmlns="http://www.w3.org/2000/svg" viewBox="0 0 100 100"><defs><style>.cls-1{fill:#6f7c84;}.cls-1,.cls-2{stroke:#333f48;stroke-miterlimit:10;}.cls-2{fill:none;}</style></defs><path class="cls-2" d="m55.62,62.12c-1.82-3.06-2.87-6.64-2.87-10.47v-19.4c0-11.32,9.18-20.5,20.5-20.5h3.26c11.32,0,20.5,9.18,20.5,20.5v19.4c0,11.32-9.18,20.5-20.5,20.5h-3.26c-1.31,0-2.6-.12-3.85-.36"/><line class="cls-2" x1="74.88" y1="22.82" x2="74.88" y2="86.61"/><polyline class="cls-2" points="83.5 31.88 74.88 40.11 66.66 31.42"/><polyline class="cls-2" points="83.5 49.54 74.88 57.51 66.51 49.14"/><line class="cls-2" x1="26.87" y1="75.32" x2="59.82" y2="75.32"/><line class="cls-2" x1="53.64" y1="75.67" x2="53.64" y2="87.62"/><line class="cls-2" x1="33.06" y1="75.67" x2="33.06" y2="87.62"/><circle class="cls-1" cx="14.85" cy="43.44" r="12.02"/><line class="cls-2" x1="14.85" y1="56.04" x2="14.85" y2="88.26"/><line class="cls-2" x1=".39" y1="88.26" x2="99.61" y2="88.26"/></svg>