<?xml version="1.0" encoding="UTF-8"?><svg id="Layer_1" xmlns="http://www.w3.org/2000/svg" viewBox="0 0 100 100"><defs><style>.cls-1,.cls-2,.cls-3{stroke:#333f48;stroke-miterlimit:10;}.cls-1,.cls-3{fill:none;stroke-linecap:round;}.cls-2{fill:#6f7c84;}.cls-3{stroke-width:.75px;}</style></defs><path class="cls-1" d="m82.59,76.67h.24c8.21,0,8.21-2.96,16.42-2.96"/><path class="cls-1" d="m.75,73.72c8.21,0,8.21,2.96,16.42,2.96s8.2-2.9,16.16-2.96"/><path class="cls-1" d="m.75,84.56c8.21,0,8.21,2.96,16.42,2.96s8.21-2.96,16.41-2.96,8.21,2.96,16.42,2.96,8.21-2.96,16.42-2.96,8.21,2.96,16.42,2.96,8.21-2.96,16.42-2.96"/><path class="cls-1" d="m.75,95.4c8.21,0,8.21,2.96,16.42,2.96s8.21-2.96,16.41-2.96,8.21,2.96,16.42,2.96,8.21-2.96,16.42-2.96,8.21,2.96,16.42,2.96,8.21-2.96,16.42-2.96"/><path class="cls-1" d="m82.59,76.67c-7.98-.06-8.05-2.96-16.18-2.96s-8.21,2.96-16.42,2.96c-1.74,0-3.11-.13-4.26-.35-4.31-.78-5.68-2.61-12.16-2.61h-.25c-5.57-5.9-6.02-17.07-6.02-17.07,0,0,5.4,4.05,10.41,0,5.02-4.04,21.37-9.01,34.92,4.25,4.82,4.72,2.18-1.99,0-6.62-2.19-4.62-7.98-13.24-9.65-19.81-1.67-6.56,1.29-15.43,11.97-13.37,10.67,2.06,9.9,12.47,9.9,12.47,0,0-2.83,3.21-4.38,3.21s-6.17-1.92-7.32-7.71c-1.15-5.79-6.68,9.26,7.72,24.43,12.15,12.81,4.43,20.94,1.73,23.17Z"/><path class="cls-1" d="m37.75,56.77s4.74,16.98,9.35,19.64"/><path class="cls-1" d="m84.85,33.57l4.08,9.19s.77,1.35-.96.96-7.49-6.94-7.49-6.94"/><circle class="cls-2" cx="24.73" cy="18.89" r="8.38"/><line class="cls-3" x1="24.73" y1="1.64" x2="24.73" y2="6.49"/><line class="cls-3" x1="24.73" y1="31.4" x2="24.73" y2="36.14"/><line class="cls-3" x1="16.11" y1="3.95" x2="18.53" y2="8.16"/><line class="cls-3" x1="30.99" y1="29.72" x2="33.36" y2="33.83"/><line class="cls-3" x1="9.79" y1="10.26" x2="14" y2="12.69"/><line class="cls-3" x1="35.56" y1="25.15" x2="39.67" y2="27.52"/><line class="cls-3" x1="7.48" y1="18.89" x2="12.34" y2="18.89"/><line class="cls-3" x1="37.24" y1="18.89" x2="41.98" y2="18.89"/><line class="cls-3" x1="9.79" y1="27.52" x2="14" y2="25.09"/><line class="cls-3" x1="35.56" y1="12.64" x2="39.67" y2="10.26"/><line class="cls-3" x1="16.11" y1="33.83" x2="18.53" y2="29.63"/><line class="cls-3" x1="30.99" y1="8.06" x2="33.36" y2="3.95"/><circle class="cls-2" cx="80.69" cy="30.4" r="1.55"/></svg>