<?xml version="1.0" encoding="UTF-8"?><svg id="Layer_1" xmlns="http://www.w3.org/2000/svg" viewBox="0 0 100 100"><defs><style>.cls-1{fill:none;stroke-linecap:round;}.cls-1,.cls-2{stroke:#333f48;stroke-miterlimit:10;}.cls-2{fill:#6f7c84;}</style></defs><path class="cls-2" d="m98.91,26.4c0,4.5-3.66,8.15-8.15,8.15s-8.17-3.64-8.17-8.15c0,4.5-3.64,8.15-8.15,8.15s-8.15-3.64-8.15-8.15c0,4.5-3.64,8.15-8.15,8.15s-8.15-3.64-8.15-8.15c0,4.5-3.66,8.15-8.17,8.15s-8.15-3.64-8.15-8.15c0,4.5-3.64,8.15-8.15,8.15s-8.15-3.64-8.15-8.15c0,4.5-3.66,8.15-8.15,8.15S1.09,30.91,1.09,26.4c0-.72.1-1.44.29-2.12.06-.27.14-.53.25-.8t.02-.02c.19-.29.45-.56.82-.72l8.99-4.18L48.49,1.35c.49-.23,1.09-.23,1.58,0l38.43,17.24,9.22,4.13c.16.08.33.16.45.29.29.62.49,1.3.62,2.02.08.45.12.91.12,1.38Z"/><line class="cls-1" x1="50" y1="28.77" x2="50" y2="59.91"/><path class="cls-1" d="m71.33,74.81H28.66c-2.68,0-4.97-1.4-5.41-3.32l-1.29-5.53h56.08l-1.28,5.53c-.45,1.92-2.74,3.33-5.43,3.33Z"/><line class="cls-1" x1="46.04" y1="74.81" x2="46.04" y2="98.55"/><line class="cls-1" x1="53.96" y1="74.81" x2="53.96" y2="98.55"/><line class="cls-1" x1="11.91" y1="84.33" x2="30.49" y2="84.33"/><line class="cls-1" x1="21.2" y1="85" x2="21.2" y2="98.82"/><line class="cls-1" x1="69.51" y1="84.33" x2="88.09" y2="84.33"/><line class="cls-1" x1="78.8" y1="85" x2="78.8" y2="98.82"/><line class="cls-1" x1="1.09" y1="98.82" x2="97.87" y2="98.82"/></svg>