<?xml version="1.0" encoding="UTF-8"?><svg id="Layer_1" xmlns="http://www.w3.org/2000/svg" viewBox="0 0 100 100"><defs><style>.cls-1{fill:none;stroke-linecap:round;}.cls-1,.cls-2{stroke:#333f48;stroke-miterlimit:10;}.cls-2{fill:#6f7c84;}</style></defs><line class="cls-1" x1="40.11" y1="68.19" x2="45.67" y2="70.14"/><line class="cls-1" x1="59.94" y1="68.19" x2="54.38" y2="70.14"/><circle class="cls-1" cx="50" cy="27.84" r="8.75" transform="translate(-2.62 50.33) rotate(-52.25)"/><line class="cls-1" x1="76.96" y1="19.38" x2="61.98" y2="34.36"/><path class="cls-1" d="m14.09,19.38c-.11,1.12.26,2.27,1.1,3.13l21.28,21.55c2.33,2.38,3.63,5.58,3.63,8.91v15.22l-3.32-.97c-4.24-1.24-8.48,1.94-8.48,6.36v18.78c0,2.24,1.73,4.19,3.97,4.26,2.32.07,4.22-1.79,4.22-4.09v-13.06c0-1.45,1.46-2.44,2.8-1.9l1.97.79c5.6,2.25,11.86,2.25,17.47,0l1.97-.79c1.34-.54,2.8.45,2.8,1.9v13.06c0,2.26,1.83,4.09,4.09,4.09h0c2.26,0,4.09-1.83,4.09-4.09v-18.95c0-4.41-4.24-7.59-8.48-6.36l-3.32.97.04-15.11c0-3.32,1.31-6.5,3.63-8.88l20.59-20.86c1.13-1.16,1.41-2.84.83-4.25"/><line class="cls-1" x1="38.2" y1="34.36" x2="23.22" y2="19.38"/><line class="cls-1" x1="8.04" y1="15.82" x2="91.96" y2="15.82"/><rect class="cls-2" x="91.96" y="4.38" width="6.78" height="22.88" rx="2.67" ry="2.67"/><rect class="cls-2" x="1.26" y="4.38" width="6.78" height="22.88" rx="2.67" ry="2.67"/></svg>