<?xml version="1.0" encoding="UTF-8"?><svg id="Layer_1" xmlns="http://www.w3.org/2000/svg" viewBox="0 0 100 100"><defs><style>.cls-1{stroke:#333f48;stroke-linecap:round;stroke-miterlimit:10;stroke-width:2px;}.cls-1,.cls-2{fill:#6f7c84;}.cls-2{stroke-width:0px;}</style></defs><path class="cls-2" d="m66.76,51.66c-2.63,6.31-13.61,27.41-13.61,27.41,0,0-9.82,5.12-10.85-5.57l10.11-17.43-14.8.43s-6.74,1.48-4.54-8.49l10.92-24.31s11.28-11.21,12.54,4.02l-8.07,15.75,14.36.16s6.58,1.75,3.95,8.04Z"/><line class="cls-1" x1="50" y1="1.77" x2="50" y2="8.36"/><line class="cls-1" x1="50" y1="91.64" x2="50" y2="98.23"/><line class="cls-1" x1="25.89" y1="8.23" x2="29.18" y2="13.94"/><line class="cls-1" x1="70.82" y1="86.06" x2="74.11" y2="91.77"/><line class="cls-1" x1="8.23" y1="25.89" x2="13.94" y2="29.18"/><line class="cls-1" x1="86.06" y1="70.82" x2="91.77" y2="74.11"/><line class="cls-1" x1="1.77" y1="50" x2="8.36" y2="50"/><line class="cls-1" x1="91.64" y1="50" x2="98.23" y2="50"/><line class="cls-1" x1="8.23" y1="74.11" x2="13.94" y2="70.82"/><line class="cls-1" x1="86.06" y1="29.18" x2="91.77" y2="25.89"/><line class="cls-1" x1="25.89" y1="91.77" x2="29.18" y2="86.06"/><line class="cls-1" x1="70.82" y1="13.94" x2="74.11" y2="8.23"/></svg>