<?xml version="1.0" encoding="UTF-8"?><svg id="Layer_1" xmlns="http://www.w3.org/2000/svg" viewBox="0 0 100 100"><defs><style>.cls-1{fill:#fff;stroke-width:0px;}.cls-2{stroke-linecap:round;}.cls-2,.cls-3,.cls-4{stroke:#333f48;stroke-miterlimit:10;}.cls-2,.cls-4{fill:none;}.cls-3{fill:#6f7c84;}</style></defs><rect class="cls-3" x="5.33" y="45.57" width="88.46" height="41.44"/><path class="cls-4" d="m5.33,45.57h-1.43c-1.64,0-2.97-1.33-2.97-2.97v-5.99c0-1.64,1.33-2.97,2.97-2.97h92.2c1.64,0,2.97,1.33,2.97,2.97v5.99c0,1.64-1.33,2.97-2.97,2.97h-2.31"/><path class="cls-4" d="m94.01,86.97h2.09c1.64,0,2.97,1.35,2.97,3.02v6.09c0,1.67-1.33,3.02-2.97,3.02H3.9c-1.64,0-2.97-1.35-2.97-3.02v-6.09c0-1.67,1.33-3.02,2.97-3.02h1.29"/><path class="cls-1" d="m54.29,66.76c-.74,1.78-3.84,7.72-3.84,7.72,0,0-2.77,1.44-3.06-1.57l2.85-4.91-4.17.12s-1.9.42-1.28-2.39l3.08-6.85s3.18-3.16,3.53,1.13l-2.27,4.44,4.04.04s1.85.49,1.11,2.27Z"/><path class="cls-4" d="m14.01,33.64V11.95c0-1.41,1.14-2.55,2.55-2.55h15.52c1.41,0,2.55,1.14,2.55,2.55v21.68"/><line class="cls-2" x1="24.32" y1=".63" x2="24.32" y2="9.4"/><line class="cls-2" x1="74.81" y1=".63" x2="74.81" y2="9.4"/><line class="cls-4" x1="14.01" y1="21.52" x2="34.63" y2="21.52"/><path class="cls-4" d="m64.5,33.64V11.95c0-1.41,1.14-2.55,2.55-2.55h15.52c1.41,0,2.55,1.14,2.55,2.55v21.68"/><line class="cls-4" x1="64.5" y1="21.52" x2="85.12" y2="21.52"/></svg>