<?xml version="1.0" encoding="UTF-8"?><svg id="Layer_1" xmlns="http://www.w3.org/2000/svg" viewBox="0 0 100 100"><defs><style>.cls-1{stroke:#fff;}.cls-1,.cls-2{fill:none;}.cls-1,.cls-2,.cls-3{stroke-miterlimit:10;}.cls-2{stroke-linecap:round;}.cls-2,.cls-3{stroke:#333f48;}.cls-3{fill:#6f7c84;}</style></defs><rect class="cls-3" x=".6" y="10.18" width="24.8" height="25.74" rx=".66" ry=".66"/><line class="cls-2" x1="12.55" y1="35.92" x2="12.55" y2="57.5"/><path class="cls-2" d="m85.83,30.98h-20.91c-13.71,2.7-18.99,11.01-22.48,14.39-3.48,3.37-6.97,7.19-22.93,9.33-15.96,2.14-12.25,18.66-12.25,20.34s2.47,2.7,2.47,2.7h6.74"/><path class="cls-2" d="m17.78,55.65c.14,5.65-1.32,10.2-9.67,8.99"/><path class="cls-2" d="m39.69,78.6v.03c0,6.19-5,11.19-11.18,11.19s-11.19-5-11.19-11.19,5.02-11.18,11.19-11.18c1.88,0,3.64.47,5.17,1.26"/><circle class="cls-3" cx="28.76" cy="78.63" r="5.14"/><path class="cls-2" d="m78.97,35.92s-24.05-1.57-31.25,15.06"/><circle class="cls-2" cx="66.11" cy="77" r="12.17"/><circle class="cls-3" cx="66.11" cy="77.12" r="7.5"/><line class="cls-2" x1="78.97" y1="76.09" x2="99.4" y2="76.09"/><path class="cls-2" d="m99.4,26.03s-9.02-3.03-27.14,18.04c0,0-13.6,6.37-24.63,7.72l-1.73.31-3.65,2.25s-4.8,3.03-4.72,19.13c0,0,.59,2.11,2.53,2.45,1.94.34,12.56,0,12.56,0"/><path class="cls-2" d="m96.4,32.21s-11.35,4.38-17.42,15.4c0,0-.11,1.24,1.24,1.46,1.35.22,16.19,0,16.19,0"/><path class="cls-2" d="m40.88,56.05h5.49s3.85,5.56-2.07,7.92h-5.25"/><path class="cls-1" d="m8.5,30.42v-14.56h5.62s6.18,3.37.28,7.53h-5.9"/></svg>