<?xml version="1.0" encoding="UTF-8"?><svg id="Layer_1" xmlns="http://www.w3.org/2000/svg" viewBox="0 0 100 100"><defs><style>.cls-1{stroke:#fff;}.cls-1,.cls-2{stroke-linecap:round;}.cls-1,.cls-2,.cls-3,.cls-4{stroke-miterlimit:10;}.cls-1,.cls-2,.cls-4{fill:none;}.cls-2,.cls-3,.cls-4{stroke:#333f48;}.cls-3{fill:#6f7c84;}</style></defs><path class="cls-3" d="m98.98,24.44v15.52H1.02v-15.52c0-4.89,3.98-8.87,8.87-8.87h80.21c4.91,0,8.87,3.98,8.87,8.87Z"/><path class="cls-4" d="m98.98,39.96v3.14c0,4.91-3.96,8.87-8.87,8.87H9.9c-4.89,0-8.87-3.96-8.87-8.87v-3.14"/><line class="cls-1" x1="68.02" y1="26.27" x2="76.28" y2="26.27"/><line class="cls-1" x1="82.39" y1="26.27" x2="90.64" y2="26.27"/><path class="cls-2" d="m26.83,61.92s-3.75,3.57,0,11.26c3.75,7.69-1.67,11.26-1.67,11.26"/><path class="cls-2" d="m42.39,61.92s-3.75,3.57,0,11.26c3.75,7.69-1.67,11.26-1.67,11.26"/><path class="cls-2" d="m57.96,61.92s-3.75,3.57,0,11.26c3.75,7.69-1.67,11.26-1.67,11.26"/><path class="cls-2" d="m73.53,61.92s-3.75,3.57,0,11.26c3.75,7.69-1.67,11.26-1.67,11.26"/></svg>