<?xml version="1.0" encoding="UTF-8"?>
<svg id="Layer_1" xmlns="http://www.w3.org/2000/svg" viewBox="0 0 100 100">
  <defs>
    <style>
      .cls-1, .cls-2, .cls-3, .cls-4 {
        stroke-miterlimit: 10;
        stroke-width: 2px;
        opacity: 1;
      }
      .cls-1, .cls-2 {
        stroke-linecap: round;
      }
      .cls-1 { stroke: #FFFFFF; fill: none; }
      .cls-2, .cls-3, .cls-4 { stroke: #E5E7EB; }
      .cls-3 { fill: #D1D5DB; }
      .cls-4 { fill: none; }
    </style>
  </defs>
  <path class="cls-3" d="M98.98,24.44v15.52H1.02v-15.52c0-4.89,3.98-8.87,8.87-8.87h80.21c4.91,0,8.87,3.98,8.87,8.87Z"/>
  <path class="cls-4" d="M98.98,39.96v3.14c0,4.91-3.96,8.87-8.87,8.87H9.9c-4.89,0-8.87-3.96-8.87-8.87v-3.14"/>
  <line class="cls-1" x1="68.02" y1="26.27" x2="76.28" y2="26.27"/>
  <line class="cls-1" x1="82.39" y1="26.27" x2="90.64" y2="26.27"/>
  <path class="cls-2" d="M26.83,61.92s-3.75,3.57,0,11.26c3.75,7.69-1.67,11.26-1.67,11.26"/>
  <path class="cls-2" d="M42.39,61.92s-3.75,3.57,0,11.26c3.75,7.69-1.67,11.26-1.67,11.26"/>
  <path class="cls-2" d="M57.96,61.92s-3.75,3.57,0,11.26c3.75,7.69-1.67,11.26-1.67,11.26"/>
  <path class="cls-2" d="M73.53,61.92s-3.75,3.57,0,11.26c3.75,7.69-1.67,11.26-1.67,11.26"/>
</svg>
