<?xml version="1.0" encoding="UTF-8"?><svg id="Layer_1" xmlns="http://www.w3.org/2000/svg" viewBox="0 0 100 100"><defs><style>.cls-1{stroke:#fff;}.cls-1,.cls-2{stroke-linecap:round;}.cls-1,.cls-2,.cls-3,.cls-4{stroke-miterlimit:10;}.cls-1,.cls-2,.cls-4{fill:none;}.cls-2,.cls-3,.cls-4{stroke:#333f48;}.cls-3{fill:#6f7c84;}</style></defs><path class="cls-4" d="m8.6,99.35V23.33c0-2.92,2.39-5.32,5.36-5.32h10.59"/><path class="cls-4" d="m57.38,18.01h10.59c2.97,0,5.36,2.39,5.36,5.32v76.02"/><rect class="cls-4" x="19.59" y="30.71" width="42.76" height="63.56"/><line class="cls-4" x1="40.97" y1="30.71" x2="40.97" y2="94.28"/><path class="cls-3" d="m57.42,17.13c0,.31,0,.58-.04.89H24.55c-.04-.31-.04-.58-.04-.89C24.5,8.04,31.86.65,40.98.65s16.44,7.4,16.44,16.48Z"/><line class="cls-1" x1="40.96" y1="7.82" x2="40.96" y2="12.58"/><polyline class="cls-2" points="81.7 57.86 86.59 53.05 91.4 57.95"/><polyline class="cls-2" points="81.7 66.59 86.59 71.4 91.4 66.51"/></svg>