<?xml version="1.0" encoding="UTF-8"?><svg id="Layer_1" xmlns="http://www.w3.org/2000/svg" viewBox="0 0 100 100"><defs><style>.cls-1{stroke-linecap:round;}.cls-1,.cls-2,.cls-3{stroke:#333f48;stroke-miterlimit:10;}.cls-1,.cls-3{fill:none;}.cls-2{fill:#6f7c84;}</style></defs><path class="cls-2" d="m98.71,73.77l-19.47-49.11c-.86-2.17-2.95-3.57-5.27-3.57H30.29c-2.81,0-5.33,1.7-6.36,4.31l-4.86,12.23-2.54,6.44-4.88,12.27-1.81,4.58-4.35,10.99c-1.56,3.94,1.33,8.21,5.58,8.21h83.33c3.28,0,5.52-3.32,4.31-6.36Zm-85.26-2.38l15.61-44.04h45.99l15.61,44.04H13.45Z"/><line class="cls-3" x1="11.52" y1="56.7" x2="16.53" y2="44.07"/><path class="cls-3" d="m.96,34.32s3.82-6.87,9.67,0v23.67l-.03,1.05"/><path class="cls-3" d="m8.63,22.32s3.12-5.51,7.9,0v21.75"/><path class="cls-1" d="m31.2,32.73c2.65,0,2.65,1.75,5.3,1.75s2.65-1.75,5.3-1.75,2.65,1.75,5.3,1.75,2.65-1.75,5.31-1.75,2.66,1.75,5.31,1.75,2.66-1.75,5.31-1.75"/><path class="cls-1" d="m43.27,43.03c2.65,0,2.65,1.75,5.3,1.75s2.65-1.75,5.3-1.75,2.65,1.75,5.3,1.75,2.65-1.75,5.31-1.75,2.66,1.75,5.31,1.75,2.66-1.75,5.31-1.75"/><path class="cls-1" d="m25.4,53.32c2.65,0,2.65,1.75,5.3,1.75s2.65-1.75,5.3-1.75,2.65,1.75,5.3,1.75,2.65-1.75,5.31-1.75,2.66,1.75,5.31,1.75,2.66-1.75,5.31-1.75"/><path class="cls-1" d="m46.21,63.62c2.65,0,2.65,1.75,5.3,1.75s2.65-1.75,5.3-1.75,2.65,1.75,5.3,1.75,2.65-1.75,5.31-1.75,2.66,1.75,5.31,1.75,2.66-1.75,5.31-1.75"/></svg>