<?xml version="1.0" encoding="UTF-8"?><svg id="Layer_1" xmlns="http://www.w3.org/2000/svg" viewBox="0 0 100 100"><defs><style>.cls-1{fill:#999;}.cls-1,.cls-2,.cls-3{stroke-width:0px;}.cls-2{fill:#b3b3b3;}.cls-3{fill:#fff;}.cls-4{stroke-linecap:round;}.cls-4,.cls-5,.cls-6{stroke: #172554;stroke-miterlimit:10;}.cls-4,.cls-6{fill:none;}.cls-5{fill: #172554;}</style></defs><path class="cls-2" d="m50.45,60.95c.1-.1.22-.2.34-.28-.01,0-.03.02-.04.02-.18.13-.33.28-.47.45,0,.01-.01.02-.02.03.06-.08.12-.16.19-.23Z"/><path class="cls-2" d="m26.46,38.31c-.23.1-.48.15-.74.18h.04c.75,0,1.39-.41,1.75-1.01-.27.36-.62.65-1.04.83Z"/><path class="cls-1" d="m50.74,60.69c-.19.11-.35.27-.47.45.14-.17.29-.32.47-.45Z"/><path class="cls-3" d="m97.79,58.82h-46.34c-1.69,0-3.06,1.37-3.06,3.06v36.77h0v.51c0,.46.37.84.84.84s.84-.37.84-.84v-.37c-.22-.15-.36-.4-.36-.68v-35.37c0-.59.21-1.13.56-1.57,0-.01.01-.02.02-.03.12-.19.28-.34.47-.45.01,0,.03-.02.04-.02,0,0,0,0,0,0,.41-.29.91-.46,1.45-.46h44.46c.25,0,.47.11.62.28h.47c.46,0,.84-.37.84-.84s-.37-.84-.84-.84Z"/><path class="cls-3" d="m29.47,36.45V2.4c0-.46-.37-.84-.84-.84s-.84.37-.84.84v.39c.13.15.21.34.21.55v32.64c0,.56-.19,1.07-.49,1.49,0,0,0,0,0,.01-.36.6-1,1.01-1.75,1.01h-.04c-.08,0-.16.03-.25.03H2.58c-.07,0-.13-.01-.19-.03h-.51c-.46,0-.84.37-.84.84s.37.84.84.84h23.88c2.05,0,3.71-1.67,3.71-3.71Z"/><path class="cls-6" d="m28.01,98.11v-35.37c0-1.4-1.14-2.53-2.53-2.53H2.58"/><path class="cls-6" d="m96.69,60.21h-44.46c-.54,0-1.03.17-1.45.46-.12.09-.24.18-.34.28-.07.07-.13.15-.19.23-.34.43-.56.97-.56,1.57v35.37"/><path class="cls-6" d="m2.58,38.52h22.9c.08,0,.16-.02.25-.03.26-.03.51-.08.74-.18.42-.18.78-.48,1.05-.84.31-.42.49-.93.49-1.49V3.35"/><path class="cls-6" d="m49.7,3.3s0,.03,0,.05v32.64c0,1.4,1.14,2.53,2.53,2.53h44.46s.02,0,.03,0"/><line class="cls-4" x1="38.59" y1="65.06" x2="38.59" y2="70.55"/><line class="cls-4" x1="38.59" y1="73.73" x2="38.59" y2="79.22"/><line class="cls-4" x1="38.59" y1="82.39" x2="38.59" y2="87.89"/><line class="cls-4" x1="38.59" y1="91.06" x2="38.59" y2="96.55"/><line class="cls-4" x1="3.59" y1="50.5" x2="9.09" y2="50.5"/><line class="cls-4" x1="12.26" y1="50.5" x2="17.75" y2="50.5"/><line class="cls-4" x1="20.93" y1="50.5" x2="26.42" y2="50.5"/><line class="cls-4" x1="3.59" y1="50.5" x2="9.09" y2="50.5"/><line class="cls-4" x1="12.26" y1="50.5" x2="17.75" y2="50.5"/><line class="cls-4" x1="20.93" y1="50.5" x2="26.42" y2="50.5"/><line class="cls-4" x1="74.64" y1="50.5" x2="80.13" y2="50.5"/><line class="cls-4" x1="83.3" y1="50.5" x2="88.8" y2="50.5"/><line class="cls-4" x1="91.97" y1="50.5" x2="97.46" y2="50.5"/><line class="cls-4" x1="74.64" y1="50.5" x2="80.13" y2="50.5"/><line class="cls-4" x1="83.3" y1="50.5" x2="88.8" y2="50.5"/><line class="cls-4" x1="91.97" y1="50.5" x2="97.46" y2="50.5"/><line class="cls-4" x1="48.64" y1="50.5" x2="54.13" y2="50.5"/><line class="cls-4" x1="57.3" y1="50.5" x2="62.8" y2="50.5"/><line class="cls-4" x1="65.97" y1="50.5" x2="71.46" y2="50.5"/><line class="cls-4" x1="38.59" y1="7.12" x2="38.59" y2="12.62"/><line class="cls-4" x1="38.59" y1="15.79" x2="38.59" y2="21.28"/><line class="cls-4" x1="38.59" y1="24.46" x2="38.59" y2="29.95"/><line class="cls-4" x1="38.59" y1="33.12" x2="38.59" y2="38.62"/><circle class="cls-5" cx="38.59" cy="50.5" r="6.54"/></svg>
