<?xml version="1.0" encoding="UTF-8"?><svg id="Layer_1" xmlns="http://www.w3.org/2000/svg" viewBox="0 0 100 100"><defs><style>.cls-1{stroke-linecap:round;}.cls-1,.cls-2,.cls-3{stroke:#333f48;stroke-miterlimit:10;}.cls-1,.cls-3{fill:none;}.cls-2{fill:#6f7c84;}</style></defs><path class="cls-2" d="m90.69,28.55l-18.33,8.68-28.21,13.37-29.04,13.75-11.07-23.39L68.51,10.43c6.14-2.91,13.46-.29,16.38,5.86l5.8,12.27Z"/><line class="cls-1" x1=".65" y1="49.23" x2="8.09" y2="64.1"/><path class="cls-3" d="m72.74,40.64c0,8.86-7.18,16.02-16.02,16.02-5.09,0-9.62-2.37-12.56-6.06l28.21-13.37c.25,1.1.37,2.24.37,3.41Z"/><line class="cls-3" x1="52.72" y1="56.67" x2="52.72" y2="70.89"/><line class="cls-3" x1="62.56" y1="55.68" x2="62.56" y2="65.64"/><circle class="cls-2" cx="57.08" cy="78.26" r="8.24"/><line class="cls-1" x1="63.1" y1="72.64" x2="82.91" y2="66.73"/><path class="cls-2" d="m99.35,54.1v34.62c-9.56,0-17.31-7.75-17.31-17.31s7.75-17.31,17.31-17.31Z"/><line class="cls-1" x1="65.33" y1="81.39" x2="77.22" y2="78.26"/><line class="cls-1" x1="67.28" y1="24.55" x2="76.9" y2="19.96"/><line class="cls-1" x1="69.11" y1="28.62" x2="78.74" y2="24.02"/></svg>