<?xml version="1.0" encoding="UTF-8"?><svg id="Layer_1" xmlns="http://www.w3.org/2000/svg" viewBox="0 0 100 100"><defs><style>.cls-1{fill:#6f7c84;}.cls-1,.cls-2{stroke:#333f48;stroke-miterlimit:10;}.cls-2{fill:none;}</style></defs><line class="cls-2" x1="10.88" y1="82.41" x2="10.88" y2="40.68"/><line class="cls-2" x1="89.36" y1="40.2" x2="89.36" y2="82.41"/><path class="cls-1" d="m99.07,29.77l-5.36-9.91-5.09-9.42c-1.2-2.26-3.57-3.68-6.15-3.68H17.8c-2.59,0-4.96,1.42-6.18,3.7l-5.06,9.37L1.16,29.82c-.52.95,0,2.15,0,2.15,1.12,4.36,5.06,7.54,9.75,7.54s7.58-2.9,8.9-6.93h1.02c1.32,4.04,5.11,6.93,9.57,6.93,4.68,0,8.63-3.19,9.75-7.54h.65c1.12,4.36,5.06,7.54,9.75,7.54s8.63-3.19,9.75-7.54h.65c1.12,4.36,5.06,7.54,9.75,7.54s8.41-3.01,9.64-7.17h.21c1.18,3.97,4.85,6.82,9.21,6.82s8.25-3.02,9.31-7.19v-2.21Z"/><rect class="cls-2" x="6.09" y="82.41" width="88.96" height="10.83" rx="1.99" ry="1.99"/><path class="cls-2" d="m42.22,81.85v-30.34c0-1.23-.99-2.22-2.22-2.22h-18.2c-1.23,0-2.22.99-2.22,2.22v30.34"/><rect class="cls-2" x="50.56" y="49.29" width="29.89" height="22.64" rx="1.43" ry="1.43"/></svg>